<svg width="100" height="100" viewBox="0 0 100 100" fill="none" xmlns="http://www.w3.org/2000/svg">
<g clip-path="url(#clip0_1618_94)">
<path d="M0.200195 22.2002C0.200195 10.0499 10.0499 0.200195 22.2002 0.200195H77.8002C89.9505 0.200195 99.8002 10.0499 99.8002 22.2002V77.8002C99.8002 89.9505 89.9505 99.8002 77.8002 99.8002H22.2002C10.0499 99.8002 0.200195 89.9505 0.200195 77.8002V22.2002Z" fill="#272F36"/>
<path d="M68.9427 46.651C67.3236 45.0288 67.3236 42.4555 68.9427 40.8333C70.5618 39.211 73.1301 39.211 74.7492 40.8333C76.3682 42.4555 76.3682 45.0288 74.7492 46.651C73.1301 48.2733 70.5618 48.2733 68.9427 46.651ZM55.2083 60.4681C54.0359 59.2934 54.0359 57.3355 55.2083 56.1048C56.3808 54.9301 58.3349 54.9301 59.5631 56.1048C60.7356 57.2795 60.7356 59.2374 59.5631 60.4681C58.3349 61.6428 56.3808 61.6428 55.2083 60.4681ZM76.9266 53.1959C75.7541 52.0212 75.7541 50.0633 76.9266 48.8326C78.099 47.6579 80.0531 47.6579 81.2814 48.8326C82.4538 50.0074 82.4538 51.9653 81.2814 53.1959C80.0531 54.4266 78.099 54.4266 76.9266 53.1959ZM69.6685 60.4681C68.4961 59.2934 68.4961 57.3355 69.6685 56.1048C70.841 54.9301 72.7951 54.9301 74.0233 56.1048C75.1958 57.2795 75.1958 59.2374 74.0233 60.4681C72.7951 61.6428 70.8968 61.6428 69.6685 60.4681ZM84.9104 59.7409C84.1287 58.9577 84.1287 57.6152 84.9104 56.832C85.692 56.0489 87.0319 56.0489 87.8136 56.832C88.5952 57.6152 88.5952 58.9577 87.8136 59.7409C86.9761 60.524 85.692 60.524 84.9104 59.7409ZM77.6524 67.013C76.8707 66.2299 76.8707 64.8873 77.6524 64.1042C78.434 63.321 79.7739 63.321 80.5556 64.1042C81.3372 64.8873 81.3372 66.2299 80.5556 67.013C79.7181 67.7962 78.434 67.7962 77.6524 67.013ZM61.6847 53.9232C60.0656 52.3009 60.0656 49.7277 61.6847 48.1054C63.3038 46.4832 65.872 46.4832 67.4911 48.1054C69.1102 49.7277 69.1102 52.3009 67.4911 53.9232C65.9279 55.5454 63.3038 55.5454 61.6847 53.9232ZM61.6847 39.4348C60.0656 37.8125 60.0656 35.2393 61.6847 33.6171C63.3038 31.9948 65.872 31.9948 67.4911 33.6171C69.1102 35.2393 69.1102 37.8125 67.4911 39.4348C65.9279 41.0011 63.3038 41.0011 61.6847 39.4348ZM54.4825 46.651C52.8634 45.0288 52.8634 42.4555 54.4825 40.8333C56.1016 39.211 58.6698 39.211 60.2889 40.8333C61.908 42.4555 61.908 45.0288 60.2889 46.651C58.6698 48.2733 56.0458 48.2733 54.4825 46.651ZM39.9107 46.651C38.2916 45.0288 38.2916 42.4555 39.9107 40.8333C41.5298 39.211 44.098 39.211 45.7171 40.8333C47.3362 42.4555 47.3362 45.0288 45.7171 46.651C44.098 48.2733 41.5298 48.2733 39.9107 46.651ZM26.1204 60.4681C24.948 59.2934 24.948 57.3355 26.1204 56.1048C27.2929 54.9301 29.247 54.9301 30.4752 56.1048C31.6477 57.2795 31.6477 59.2374 30.4752 60.4681C29.3028 61.6428 27.3487 61.6428 26.1204 60.4681ZM47.8945 53.1959C46.722 52.0212 46.722 50.0633 47.8945 48.8326C49.0669 47.6579 51.021 47.6579 52.2493 48.8326C53.4217 50.0074 53.4217 51.9653 52.2493 53.1959C51.021 54.4266 49.0669 54.4266 47.8945 53.1959ZM40.6365 60.4681C39.464 59.2934 39.464 57.3355 40.6365 56.1048C41.8089 54.9301 43.763 54.9301 44.9913 56.1048C46.1637 57.2795 46.1637 59.2374 44.9913 60.4681C43.763 61.6428 41.8089 61.6428 40.6365 60.4681ZM12.386 59.7409C11.6044 58.9577 11.6044 57.6152 12.386 56.832C13.1677 56.0489 14.5076 56.0489 15.2892 56.832C16.0709 57.6152 16.0709 58.9577 15.2892 59.7409C14.4518 60.524 13.1677 60.524 12.386 59.7409ZM19.644 67.013C18.8624 66.2299 18.8624 64.8873 19.644 64.1042C20.4257 63.321 21.7656 63.321 22.5473 64.1042C23.3289 64.8873 23.3289 66.2299 22.5473 67.013C21.7098 67.7962 20.4257 67.7962 19.644 67.013ZM48.6203 67.013C47.8387 66.2299 47.8387 64.8873 48.6203 64.1042C49.4019 63.321 50.7419 63.321 51.5235 64.1042C52.3051 64.8873 52.3051 66.2299 51.5235 67.013C50.686 67.7962 49.4019 67.7962 48.6203 67.013ZM18.9182 53.1959C17.7458 52.0212 17.7458 50.0633 18.9182 48.8326C20.0907 47.6579 22.0448 47.6579 23.2731 48.8326C24.4455 50.0074 24.4455 51.9653 23.2731 53.1959C22.0448 54.4266 20.0907 54.4266 18.9182 53.1959ZM32.6526 53.9232C31.0336 52.3009 31.0336 49.7277 32.6526 48.1054C34.2717 46.4832 36.84 46.4832 38.4591 48.1054C40.0782 49.7277 40.0782 52.3009 38.4591 53.9232C36.84 55.5454 34.2717 55.5454 32.6526 53.9232ZM32.6526 39.4348C31.0336 37.8125 31.0336 35.2393 32.6526 33.6171C34.2717 31.9948 36.84 31.9948 38.4591 33.6171C40.0782 35.2393 40.0782 37.8125 38.4591 39.4348C36.84 41.0011 34.2717 41.0011 32.6526 39.4348ZM25.3946 46.651C23.7755 45.0288 23.7755 42.4555 25.3946 40.8333C27.0137 39.211 29.5819 39.211 31.201 40.8333C32.8201 42.4555 32.8201 45.0288 31.201 46.651C29.6378 48.2733 27.0137 48.2733 25.3946 46.651Z" fill="white"/>
</g>
<defs>
<clipPath id="clip0_1618_94">
<rect width="100" height="100" fill="white"/>
</clipPath>
</defs>
</svg>
