<svg width="100" height="100" viewBox="0 0 100 100" fill="none" xmlns="http://www.w3.org/2000/svg">
<g clip-path="url(#clip0_1618_84)">
<path d="M50.1389 0C36.4131 0 25.3051 11.108 25.3051 24.8338V34.1413C20.4852 35.0138 15.6514 36.1773 15.6514 37.687V86.2604C15.6514 86.2604 15.6514 87.6039 17.1611 88.241C22.632 90.4571 44.1555 98.0748 49.1001 99.8199C49.7372 100.055 49.9173 100.055 50.0835 100.055C50.319 100.055 50.4298 100.055 51.0669 99.8199C56.0115 98.0748 77.5904 90.4571 83.0613 88.241C84.4602 87.6593 84.5156 86.3158 84.5156 86.3158V37.687C84.5156 36.1773 79.7511 34.9584 74.9173 34.1413V24.8338C74.9865 11.108 63.8093 0 50.1389 0ZM50.1389 11.8698C58.2275 11.8698 63.1167 16.759 63.1167 24.8476V32.9363C54.0447 32.2992 46.3023 32.2992 37.1749 32.9363V24.8476C37.1749 16.7452 42.0641 11.8698 50.1389 11.8698ZM50.0835 44.8476C61.3716 44.8476 70.8453 45.7202 70.8453 47.2853V77.59C70.8453 78.0609 70.7899 78.1163 70.3744 78.2825C69.9727 78.4626 51.1223 85.2631 51.1223 85.2631C51.1223 85.2631 50.3605 85.4986 50.1389 85.4986C49.9034 85.4986 49.1555 85.2078 49.1555 85.2078C49.1555 85.2078 30.3051 78.4072 29.9034 78.2271C29.5018 78.0471 29.4325 77.9917 29.4325 77.5346V47.2299C29.3217 45.6648 38.7954 44.8476 50.0835 44.8476Z" fill="black"/>
</g>
<defs>
<clipPath id="clip0_1618_84">
<rect width="100" height="100" fill="white"/>
</clipPath>
</defs>
</svg>
