<svg width="100" height="100" viewBox="0 0 100 100" fill="none" xmlns="http://www.w3.org/2000/svg">
<path d="M49.875 3C24 3 3 24 3 49.875C3 75.75 24 96.625 49.875 96.625C75.75 96.625 96.75 75.625 96.75 49.75C96.75 23.875 75.75 3 49.875 3ZM62.25 60C59.125 60 51.375 60.125 51.375 60.125L47.875 73.625H33.375L36.75 60.375H14.125L17.75 49.5C17.75 49.5 57.125 49.625 60.375 49.5C63.625 49.375 68.625 48.625 68.75 42.125C68.875 33.25 55.25 33.75 54.125 41.625C53.375 46.625 53.375 47.875 53.375 47.875H40.5L43 36.125H22.125L25.25 25.125C25.25 25.125 55.875 25.25 61.625 25.25C67.375 25.25 82.75 26.75 82.75 40.875C82.75 56.375 67.875 60 62.25 60Z" fill="#1A72FE"/>
</svg>
