<svg width="100" height="100" viewBox="0 0 100 100" fill="none" xmlns="http://www.w3.org/2000/svg">
<g clip-path="url(#clip0_1618_82)">
<path d="M83.8252 1.35938H38.0971V61.2708H99.8058V16.8745C99.8058 8.27803 92.6796 1.35938 83.8252 1.35938ZM23.8447 1.35938H15.9806C7.12621 1.35938 0 8.27803 0 16.8745V24.5095H23.8447V1.35938ZM0 38.3468H23.8447V61.497H0V38.3468ZM76.2136 98.2582H84.0777C92.932 98.2582 100.058 91.3396 100.058 82.7431V75.3532H76.2136V98.2582ZM38.0971 75.3532H61.9417V98.5033H38.0971V75.3532ZM0 75.3532V82.9882C0 91.5847 7.12621 98.5033 15.9806 98.5033H23.8447V75.3532H0Z" fill="#1D2028"/>
</g>
<defs>
<clipPath id="clip0_1618_82">
<rect width="100" height="100" fill="white"/>
</clipPath>
</defs>
</svg>
