<svg width="100" height="100" viewBox="0 0 100 100" fill="none" xmlns="http://www.w3.org/2000/svg">
<path d="M49.9574 4.61666L52.2236 1.68823C51.5748 1.18635 50.7777 0.914063 49.9574 0.914062C49.1372 0.914063 48.3401 1.18635 47.6912 1.68823L49.9574 4.61666ZM88.7925 16.0257L92.499 16.0861C92.5067 15.5945 92.4165 15.1063 92.2337 14.6499C92.0508 14.1935 91.779 13.7781 91.4341 13.4277C91.0891 13.0774 90.6779 12.7992 90.2244 12.6093C89.7709 12.4194 89.2842 12.3217 88.7925 12.3217V16.0257ZM49.9574 95.3602L47.9053 98.4448C48.513 98.85 49.227 99.0663 49.9574 99.0663C50.6878 99.0663 51.4019 98.85 52.0096 98.4448L49.9574 95.3602ZM11.1803 16.0257V12.3217C10.6888 12.322 10.2024 12.42 9.74914 12.61C9.29592 12.8001 8.88502 13.0783 8.54034 13.4286C8.19566 13.7789 7.92408 14.1943 7.74141 14.6505C7.55874 15.1068 7.46862 15.5948 7.4763 16.0861L11.1803 16.0257ZM47.6912 7.54509C64.5039 20.5707 83.7414 19.7322 88.795 19.7322V12.3217C83.5677 12.3217 66.8054 12.9814 52.2287 1.68823L47.6912 7.54509ZM85.0911 15.9653C84.8141 33.1733 84.0839 45.3125 82.6914 54.3043C81.3141 63.2029 79.3475 68.5335 76.8144 72.2803C74.2486 76.1706 71.023 78.4796 66.2615 81.33C61.4496 84.2105 55.3737 87.3152 47.9078 92.2757L52.0121 98.4448C59.1154 93.711 65.0377 90.6944 70.0662 87.6879C75.1349 84.6487 79.5917 81.3048 82.9533 76.4299C86.3475 71.4091 88.5533 64.8673 90.0037 55.4374C91.444 46.1007 92.2094 33.4578 92.494 16.0861L85.0911 15.9653ZM52.0096 92.2757C44.5437 87.3152 38.4703 84.2181 33.666 81.33C28.9019 78.4821 25.689 76.1731 23.1307 72.2828C20.6127 68.5385 18.6436 63.218 17.2713 54.3068C15.8814 45.3125 15.1562 33.1733 14.8767 15.9653L7.46875 16.0861C7.75328 33.4603 8.51372 46.1007 9.94898 55.4349C11.4019 64.8648 13.6026 71.4065 16.9994 76.4274C20.3508 81.3023 24.8052 84.6487 29.8689 87.6879C34.8897 90.6919 40.8096 93.711 47.9153 98.4448L52.0096 92.2757ZM11.1727 19.7322C16.176 19.7322 35.4135 20.5707 52.2161 7.54509L47.6837 1.68823C33.1045 12.9814 16.3422 12.3217 11.1727 12.3217V19.7322Z" fill="#3375BB"/>
</svg>
