<svg width="100" height="100" viewBox="0 0 100 100" fill="none" xmlns="http://www.w3.org/2000/svg">
<path fill-rule="evenodd" clip-rule="evenodd" d="M2 96.0695L31.0648 16.6721C34.7528 7.40239 41.6288 2.15509 50.7692 2.0034V2L50.9736 2.00085L51.1784 2V2.0034C60.3188 2.15509 67.1948 7.40239 70.883 16.6721L99.9476 96.0695L81.9498 89.8285L57.1212 22.0039C55.6102 18.2528 53.865 16.9022 50.9736 16.8427C48.0822 16.9022 46.3374 18.2528 44.8264 22.0039L19.9979 89.8285L2 96.0695ZM63.6204 65.8367C63.6204 72.7719 58.035 78.3943 51.1444 78.3943C44.2544 78.3943 38.6688 72.7719 38.6688 65.8367C38.6688 58.9013 44.2544 53.2793 51.1444 53.2793C58.035 53.2793 63.6204 58.9013 63.6204 65.8367Z" fill="#3692FE"/>
</svg>
