<svg xmlns="http://www.w3.org/2000/svg" xmlns:xlink="http://www.w3.org/1999/xlink" xmlns:lucid="lucid" width="1835.33" height="944.67"><g transform="translate(-65.33333333333348 86.99999999999997)" lucid:page-tab-id="0_0"><path d="M0-500h2000v1500H0z" fill="#fff"/><path d="M508-61a6 6 0 0 1 6-6h228a6 6 0 0 1 6 6v51.33a6 6 0 0 1-6 6H514a6 6 0 0 1-6-6z" stroke="#000" stroke-opacity="0" fill="#fff" fill-opacity="0"/><use xlink:href="#a" transform="matrix(1,0,0,1,512.9999999999997,-61.99999999999997) translate(31.833333333333343 35.374999999999986)"/><use xlink:href="#b" transform="matrix(1,0,0,1,512.9999999999997,-61.99999999999997) translate(175.94444444444443 35.374999999999986)"/><path d="M1180-54.33a6 6 0 0 1 6-6h228a6 6 0 0 1 6 6V-3a6 6 0 0 1-6 6h-228a6 6 0 0 1-6-6z" stroke="#000" stroke-opacity="0" fill="#fff" fill-opacity="0"/><use xlink:href="#a" transform="matrix(1,0,0,1,1184.9999999999995,-55.333333333333485) translate(31.833333333333343 35.374999999999986)"/><use xlink:href="#c" transform="matrix(1,0,0,1,1184.9999999999995,-55.333333333333485) translate(175.94444444444443 35.374999999999986)"/><path d="M376 92c0 13.62-11.34 24.67-25.33 24.67-14 0-25.34-11.05-25.34-24.67 0-13.62 11.35-24.67 25.34-24.67 14 0 25.33 11.05 25.33 24.67z" stroke="#3a414a" stroke-width="3" fill="#fff"/><use xlink:href="#d" transform="matrix(1,0,0,1,330.3333333333334,72.3333333333332) translate(11.86302469135803 27.38888888888888)"/><path d="M400 55.67a6 6 0 0 1 6-6h434.67a6 6 0 0 1 6 6v72.66a6 6 0 0 1-6 6H406a6 6 0 0 1-6-6z" stroke="#000" stroke-opacity="0" fill="#fff" fill-opacity="0"/><use xlink:href="#e" transform="matrix(1,0,0,1,405.0000000000003,54.66666666666656) translate(9.45679012345687 25.454861111111104)"/><use xlink:href="#f" transform="matrix(1,0,0,1,405.0000000000003,54.66666666666656) translate(37.22222222222229 25.454861111111104)"/><use xlink:href="#g" transform="matrix(1,0,0,1,405.0000000000003,54.66666666666656) translate(181.42592592592592 25.454861111111104)"/><use xlink:href="#h" transform="matrix(1,0,0,1,405.0000000000003,54.66666666666656) translate(295.13580246913574 25.454861111111104)"/><use xlink:href="#i" transform="matrix(1,0,0,1,405.0000000000003,54.66666666666656) translate(327.23456790123447 25.454861111111104)"/><use xlink:href="#j" transform="matrix(1,0,0,1,405.0000000000003,54.66666666666656) translate(368.9629629629629 25.454861111111104)"/><use xlink:href="#k" transform="matrix(1,0,0,1,405.0000000000003,54.66666666666656) translate(393.83950617283944 25.454861111111104)"/><use xlink:href="#l" transform="matrix(1,0,0,1,405.0000000000003,54.66666666666656) translate(150.61111111111114 60.12152777777776)"/><path d="M369.33 208c0 13.62-11.34 24.67-25.33 24.67-14 0-25.33-11.05-25.33-24.67 0-13.62 11.34-24.67 25.33-24.67 14 0 25.33 11.05 25.33 24.67z" stroke="#3a414a" stroke-width="3" fill="#fff"/><use xlink:href="#m" transform="matrix(1,0,0,1,323.6666666666668,188.33333333333331) translate(11.86302469135803 27.38888888888888)"/><path d="M389.33 177.33a6 6 0 0 1 6-6h477.34a6 6 0 0 1 6 6V250a6 6 0 0 1-6 6H395.33a6 6 0 0 1-6-6z" stroke="#000" stroke-opacity="0" fill="#fff" fill-opacity="0"/><use xlink:href="#e" transform="matrix(1,0,0,1,394.33333333333366,176.33333333333337) translate(37.89814814814821 25.454861111111104)"/><use xlink:href="#n" transform="matrix(1,0,0,1,394.33333333333366,176.33333333333337) translate(65.66358024691363 25.454861111111104)"/><use xlink:href="#o" transform="matrix(1,0,0,1,394.33333333333366,176.33333333333337) translate(137.88580246913583 25.454861111111104)"/><use xlink:href="#p" transform="matrix(1,0,0,1,394.33333333333366,176.33333333333337) translate(105.50617283950623 60.12152777777776)"/><use xlink:href="#q" transform="matrix(1,0,0,1,394.33333333333366,176.33333333333337) translate(223.87037037037038 60.12152777777776)"/><path d="M369.33 329.67c0 13.62-11.34 24.66-25.33 24.66-14 0-25.33-11.04-25.33-24.66C318.67 316.04 330 305 344 305c14 0 25.33 11.04 25.33 24.67z" stroke="#3a414a" stroke-width="3" fill="#fff"/><use xlink:href="#r" transform="matrix(1,0,0,1,323.6666666666668,310.0000000000001) translate(11.86302469135803 27.38888888888888)"/><path d="M727.33 335.37l340.9-3.1" stroke="#3a414a" stroke-width="4" fill="none"/><path d="M727.4 337.37l-2.07.02v-4l2.04-.03z" stroke="#3a414a" stroke-width=".05" fill="#3a414a"/><path d="M1084.5 332.12l-14.22 4.76-.08-9.27z" stroke="#3a414a" stroke-width="4" fill="#3a414a"/><path d="M405.33 293.33a6 6 0 0 1 6-6h308a6 6 0 0 1 6 6V366a6 6 0 0 1-6 6h-308a6 6 0 0 1-6-6z" stroke="#000" stroke-opacity="0" fill="#fff" fill-opacity="0"/><use xlink:href="#e" transform="matrix(1,0,0,1,410.33333333333354,292.3333333333335) translate(4.938271604938336 25.454861111111104)"/><use xlink:href="#f" transform="matrix(1,0,0,1,410.33333333333354,292.3333333333335) translate(32.70370370370376 25.454861111111104)"/><use xlink:href="#g" transform="matrix(1,0,0,1,410.33333333333354,292.3333333333335) translate(176.9074074074074 25.454861111111104)"/><use xlink:href="#s" transform="matrix(1,0,0,1,410.33333333333354,292.3333333333335) translate(290.6172839506172 25.454861111111104)"/><use xlink:href="#t" transform="matrix(1,0,0,1,410.33333333333354,292.3333333333335) translate(87.11111111111114 60.12152777777776)"/><path d="M1068.67 311a6 6 0 0 1 6-6h218.66a6 6 0 0 1 6 6v44.67a6 6 0 0 1-6 6h-218.66a6 6 0 0 1-6-6z" stroke="#000" stroke-opacity="0" fill="#fff" fill-opacity="0"/><use xlink:href="#u" transform="matrix(1,0,0,1,1073.6666666666667,310.0000000000001) translate(28.086419753086446 28.986111111111104)"/><use xlink:href="#v" transform="matrix(1,0,0,1,1073.6666666666667,310.0000000000001) translate(56.89506172839508 28.986111111111104)"/><path d="M785.33 271a6 6 0 0 1 6-6h252a6 6 0 0 1 6 6v62a6 6 0 0 1-6 6h-252a6 6 0 0 1-6-6z" stroke="#000" stroke-opacity="0" fill="#fff" fill-opacity="0"/><use xlink:href="#w" transform="matrix(1,0,0,1,790.333333333333,269.99999999999994) translate(9.0555555555556 35.55555555555556)"/><use xlink:href="#x" transform="matrix(1,0,0,1,790.333333333333,269.99999999999994) translate(42.93827160493831 35.55555555555556)"/><use xlink:href="#y" transform="matrix(1,0,0,1,790.333333333333,269.99999999999994) translate(147.30246913580248 35.55555555555556)"/><path d="M1662 413.4c0 13.6-11.34 24.66-25.33 24.66-14 0-25.34-11.05-25.34-24.67 0-13.63 11.35-24.68 25.34-24.68 14 0 25.33 11.05 25.33 24.67z" stroke="#3a414a" stroke-width="3" fill="#fff"/><use xlink:href="#z" transform="matrix(1,0,0,1,1616.3333333333326,393.72372372372365) translate(11.86302469135803 27.38888888888888)"/><path d="M1068.67 383.72a6 6 0 0 1 6-6h348a6 6 0 0 1 6 6v72.67a6 6 0 0 1-6 6h-348a6 6 0 0 1-6-6z" stroke="#000" stroke-opacity="0" fill="#fff" fill-opacity="0"/><use xlink:href="#u" transform="matrix(1,0,0,1,1073.6666666666667,382.72372372372377) translate(15.296604938271685 25.454861111111104)"/><use xlink:href="#A" transform="matrix(1,0,0,1,1073.6666666666667,382.72372372372377) translate(44.10524691358032 25.454861111111104)"/><use xlink:href="#B" transform="matrix(1,0,0,1,1073.6666666666667,382.72372372372377) translate(196.25339506172838 25.454861111111104)"/><use xlink:href="#j" transform="matrix(1,0,0,1,1073.6666666666667,382.72372372372377) translate(241.29598765432095 25.454861111111104)"/><use xlink:href="#C" transform="matrix(1,0,0,1,1073.6666666666667,382.72372372372377) translate(266.1725308641975 25.454861111111104)"/><use xlink:href="#D" transform="matrix(1,0,0,1,1073.6666666666667,382.72372372372377) translate(106.99074074074076 60.12152777777776)"/><path d="M1662 521.1c0 13.64-11.34 24.68-25.33 24.68-14 0-25.34-11.04-25.34-24.67 0-13.6 11.35-24.65 25.34-24.65 14 0 25.33 11.04 25.33 24.66z" stroke="#3a414a" stroke-width="3" fill="#fff"/><use xlink:href="#E" transform="matrix(1,0,0,1,1616.3333333333326,501.4474474474479) translate(11.86302469135803 27.38888888888888)"/><path d="M1055.33 484.45a6 6 0 0 1 6-6h477.34a6 6 0 0 1 6 6v72.66a6 6 0 0 1-6 6h-477.34a6 6 0 0 1-6-6z" stroke="#000" stroke-opacity="0" fill="#fff" fill-opacity="0"/><use xlink:href="#u" transform="matrix(1,0,0,1,1060.333333333333,483.4474474474474) translate(35.71944444444452 25.454861111111104)"/><use xlink:href="#n" transform="matrix(1,0,0,1,1060.333333333333,483.4474474474474) translate(64.52808641975315 25.454861111111104)"/><use xlink:href="#F" transform="matrix(1,0,0,1,1060.333333333333,483.4474474474474) translate(136.75030864197532 25.454861111111104)"/><use xlink:href="#G" transform="matrix(1,0,0,1,1060.333333333333,483.4474474474474) translate(99.88888888888897 60.12152777777776)"/><use xlink:href="#H" transform="matrix(1,0,0,1,1060.333333333333,483.4474474474474) translate(229.48765432098767 60.12152777777776)"/><path d="M1662 715.83c0 13.63-11.34 24.67-25.33 24.67-14 0-25.34-11.04-25.34-24.67 0-13.62 11.35-24.66 25.34-24.66 14 0 25.33 11.04 25.33 24.66z" stroke="#3a414a" stroke-width="3" fill="#fff"/><use xlink:href="#I" transform="matrix(1,0,0,1,1616.333333333333,696.1666666666665) translate(11.86302469135803 27.38888888888888)"/><path d="M1035.33 668.83a6 6 0 0 1 6-6h477.34a6 6 0 0 1 6 6v94a6 6 0 0 1-6 6h-477.34a6 6 0 0 1-6-6z" stroke="#000" stroke-opacity="0" fill="#fff" fill-opacity="0"/><use xlink:href="#u" transform="matrix(1,0,0,1,1040.3333333333342,667.833333333333) translate(26.852160493827284 53.1111111111111)"/><use xlink:href="#n" transform="matrix(1,0,0,1,1040.3333333333342,667.833333333333) translate(55.660802469135916 53.1111111111111)"/><use xlink:href="#J" transform="matrix(1,0,0,1,1040.3333333333342,667.833333333333) translate(127.8830246913581 53.1111111111111)"/><path d="M375.33 789.67c0 13.62-11.34 24.66-25.33 24.66-14 0-25.33-11.04-25.33-24.66C324.67 776.04 336 765 350 765c14 0 25.33 11.04 25.33 24.67z" stroke="#3a414a" stroke-width="3" fill="#fff"/><use xlink:href="#K" transform="matrix(1,0,0,1,329.66666666666714,769.9999999999995) translate(11.86302469135803 27.38888888888888)"/><path d="M395.33 759a6 6 0 0 1 6-6H908a6 6 0 0 1 6 6v72.67a6 6 0 0 1-6 6H401.33a6 6 0 0 1-6-6z" stroke="#000" stroke-opacity="0" fill="#fff" fill-opacity="0"/><use xlink:href="#e" transform="matrix(1,0,0,1,400.33333333333394,757.9999999999997) translate(43.530864197531 44.2048611111111)"/><use xlink:href="#n" transform="matrix(1,0,0,1,400.33333333333394,757.9999999999997) translate(71.29629629629642 44.2048611111111)"/><use xlink:href="#L" transform="matrix(1,0,0,1,400.33333333333394,757.9999999999997) translate(143.51851851851862 44.2048611111111)"/><path d="M145.17 210.67h121.1M145.18 210.67h-.5" stroke="#3a414a" fill="none"/><path d="M281.05 210.67l-14.27 4.63v-9.27z" stroke="#3a414a" fill="#3a414a"/><path d="M94.67 164.33a6 6 0 0 1 6-6h228a6 6 0 0 1 6 6v48a6 6 0 0 1-6 6h-228a6 6 0 0 1-6-6z" stroke="#000" stroke-opacity="0" fill="#fff" fill-opacity="0"/><g><use xlink:href="#M" transform="matrix(1,0,0,1,99.66666666666674,163.33333333333326) translate(60.22222222222223 30.708333333333332)"/><use xlink:href="#N" transform="matrix(1,0,0,1,99.66666666666674,163.33333333333326) translate(152 30.708333333333332)"/></g><path d="M102.67 182.67a6 6 0 0 1 6-6h28a6 6 0 0 1 6 6v48a6 6 0 0 1-6 6h-28a6 6 0 0 1-6-6z" stroke="#000" stroke-opacity="0" fill="#fff" fill-opacity="0"/><g><use xlink:href="#O" transform="matrix(1,0,0,1,107.66666666662786,181.66666666666669) translate(6.111111111111111 30.708333333333332)"/></g><path d="M270.83 802.83H163.05M270.82 802.83h.5" stroke="#3a414a" fill="none"/><path d="M148.28 802.83l14.27-4.63v9.27z" stroke="#3a414a" fill="#3a414a"/><path d="M85.33 756.5a6 6 0 0 1 6-6h228a6 6 0 0 1 6 6v28a6 6 0 0 1-6 6h-228a6 6 0 0 1-6-6z" stroke="#000" stroke-opacity="0" fill="#fff" fill-opacity="0"/><g><use xlink:href="#M" transform="matrix(1,0,0,1,90.33333333333348,755.4999999999995) translate(60.22222222222223 23.208333333333332)"/><use xlink:href="#N" transform="matrix(1,0,0,1,90.33333333333348,755.4999999999995) translate(152 23.208333333333332)"/></g><path d="M93.33 774.83a6 6 0 0 1 6-6h28a6 6 0 0 1 6 6v48a6 6 0 0 1-6 6h-28a6 6 0 0 1-6-6z" stroke="#000" stroke-opacity="0" fill="#fff" fill-opacity="0"/><g><use xlink:href="#O" transform="matrix(1,0,0,1,98.3333333332946,773.833333333333) translate(6.111111111111111 30.708333333333332)"/></g><path d="M1826.17 538.06h-107.8M1826.15 538.06h.52" stroke="#3a414a" fill="none"/><path d="M1703.62 538.06l14.26-4.64v9.27z" stroke="#3a414a" fill="#3a414a"/><path d="M1640.67 491.72a6 6 0 0 1 6-6h228a6 6 0 0 1 6 6v28a6 6 0 0 1-6 6h-228a6 6 0 0 1-6-6z" stroke="#000" stroke-opacity="0" fill="#fff" fill-opacity="0"/><g><use xlink:href="#M" transform="matrix(1,0,0,1,1645.666666666666,490.7237237237234) translate(60.22222222222223 23.208333333333332)"/><use xlink:href="#P" transform="matrix(1,0,0,1,1645.666666666666,490.7237237237234) translate(152 23.208333333333332)"/></g><path d="M1830 509.72a6 6 0 0 1 6-6h28a6 6 0 0 1 6 6v48a6 6 0 0 1-6 6h-28a6 6 0 0 1-6-6z" stroke="#000" stroke-opacity="0" fill="#fff" fill-opacity="0"/><g><use xlink:href="#Q" transform="matrix(1,0,0,1,1834.9999999999604,508.72372372372377) translate(6.111111111111111 30.708333333333332)"/></g><path d="M1691.17 728.33h121.1M1691.18 728.33h-.5" stroke="#3a414a" fill="none"/><path d="M1827.05 728.33l-14.27 4.64v-9.27z" stroke="#3a414a" fill="#3a414a"/><path d="M1640.67 682a6 6 0 0 1 6-6h228a6 6 0 0 1 6 6v48a6 6 0 0 1-6 6h-228a6 6 0 0 1-6-6z" stroke="#000" stroke-opacity="0" fill="#fff" fill-opacity="0"/><g><use xlink:href="#M" transform="matrix(1,0,0,1,1645.666666666666,680.9999999999995) translate(60.22222222222223 30.708333333333332)"/><use xlink:href="#P" transform="matrix(1,0,0,1,1645.666666666666,680.9999999999995) translate(152 30.708333333333332)"/></g><path d="M1834.67 707a6 6 0 0 1 6-6h28a6 6 0 0 1 6 6v48a6 6 0 0 1-6 6h-28a6 6 0 0 1-6-6z" stroke="#000" stroke-opacity="0" fill="#fff" fill-opacity="0"/><g><use xlink:href="#Q" transform="matrix(1,0,0,1,1839.6666666666265,705.9999999999995) translate(6.111111111111111 30.708333333333332)"/></g><path d="M324.67 594.86a6 6 0 0 1 6-6H1670a6 6 0 0 1 6 6v49.34a6 6 0 0 1-6 6H330.67a6 6 0 0 1-6-6z" stroke="#3a414a" stroke-width="5" fill="#fff"/><g><use xlink:href="#R" transform="matrix(1,0,0,1,336.66666666666714,600.8618618618424) translate(533.8086419753087 27.263888888888886)"/><use xlink:href="#S" transform="matrix(1,0,0,1,336.66666666666714,600.8618618618424) translate(682.1049382716049 27.263888888888886)"/></g><defs><path fill="#3a414a" d="M24 0v-248h52v208h133V0H24" id="T"/><path fill="#3a414a" d="M185-48c-13 30-37 53-82 52C43 2 14-33 14-96s30-98 90-98c62 0 83 45 84 108H66c0 31 8 55 39 56 18 0 30-7 34-22zm-45-69c5-46-57-63-70-21-2 6-4 13-4 21h74" id="U"/><path fill="#3a414a" d="M88-194c31-1 46 15 58 34l-1-101h50l1 261h-48c-2-10 0-23-3-31C134-8 116 4 84 4 32 4 16-41 15-95c0-56 19-97 73-99zm17 164c33 0 40-30 41-66 1-37-9-64-41-64s-38 30-39 65c0 43 13 65 39 65" id="V"/><path fill="#3a414a" d="M195-6C206 82 75 100 31 46c-4-6-6-13-8-21l49-6c3 16 16 24 34 25 40 0 42-37 40-79-11 22-30 35-61 35-53 0-70-43-70-97 0-56 18-96 73-97 30 0 46 14 59 34l2-30h47zm-90-29c32 0 41-27 41-63 0-35-9-62-40-62-32 0-39 29-40 63 0 36 9 62 39 62" id="W"/><path fill="#3a414a" d="M135-150c-39-12-60 13-60 57V0H25l-1-190h47c2 13-1 29 3 40 6-28 27-53 61-41v41" id="X"/><g id="a"><use transform="matrix(0.11111111111111108,0,0,0.11111111111111108,0,0)" xlink:href="#T"/><use transform="matrix(0.11111111111111108,0,0,0.11111111111111108,24.333333333333325,0)" xlink:href="#U"/><use transform="matrix(0.11111111111111108,0,0,0.11111111111111108,46.55555555555554,0)" xlink:href="#V"/><use transform="matrix(0.11111111111111108,0,0,0.11111111111111108,70.88888888888887,0)" xlink:href="#W"/><use transform="matrix(0.11111111111111108,0,0,0.11111111111111108,95.2222222222222,0)" xlink:href="#U"/><use transform="matrix(0.11111111111111108,0,0,0.11111111111111108,117.44444444444441,0)" xlink:href="#X"/></g><path fill="#3a414a" d="M23 0v-37h61v-169l-59 37v-38l62-41h46v211h57V0H23" id="Y"/><use transform="matrix(0.11111111111111108,0,0,0.11111111111111108,0,0)" xlink:href="#Y" id="b"/><path fill="#3a414a" d="M182-182c0 78-84 86-111 141h115V0H12c-6-101 99-100 120-180 1-22-12-31-33-32-23 0-32 14-35 34l-49-3c5-45 32-70 84-70 51 0 83 22 83 69" id="Z"/><use transform="matrix(0.11111111111111108,0,0,0.11111111111111108,0,0)" xlink:href="#Z" id="c"/><use transform="matrix(0.0864197530864197,0,0,0.0864197530864197,0,0)" xlink:href="#Y" id="d"/><path fill="#3a414a" d="M199 0l-22-63H83L61 0H9l90-248h61L250 0h-51zm-33-102l-36-108c-10 38-24 72-36 108h72" id="aa"/><use transform="matrix(0.08024691358024688,0,0,0.08024691358024688,0,0)" xlink:href="#aa" id="e"/><path fill="#3a414a" d="M135-194c87-1 58 113 63 194h-50c-7-57 23-157-34-157-59 0-34 97-39 157H25l-1-190h47c2 12-1 28 3 38 12-26 28-41 61-42" id="ab"/><path fill="#3a414a" d="M133-34C117-15 103 5 69 4 32 3 11-16 11-54c-1-60 55-63 116-61 1-26-3-47-28-47-18 1-26 9-28 27l-52-2c7-38 36-58 82-57s74 22 75 68l1 82c-1 14 12 18 25 15v27c-30 8-71 5-69-32zm-48 3c29 0 43-24 42-57-32 0-66-3-65 30 0 17 8 27 23 27" id="ac"/><path fill="#3a414a" d="M115-3C79 11 28 4 28-45v-112H4v-33h27l15-45h31v45h36v33H77v99c-1 23 16 31 38 25v30" id="ad"/><path fill="#3a414a" d="M137-138c1-29-70-34-71-4 15 46 118 7 119 86 1 83-164 76-172 9l43-7c4 19 20 25 44 25 33 8 57-30 24-41C81-84 22-81 20-136c-2-80 154-74 161-7" id="ae"/><g id="f"><use transform="matrix(0.08024691358024688,0,0,0.08024691358024688,0,0)" xlink:href="#W"/><use transform="matrix(0.08024691358024688,0,0,0.08024691358024688,17.574074074074066,0)" xlink:href="#U"/><use transform="matrix(0.08024691358024688,0,0,0.08024691358024688,33.62345679012344,0)" xlink:href="#ab"/><use transform="matrix(0.08024691358024688,0,0,0.08024691358024688,51.1975308641975,0)" xlink:href="#U"/><use transform="matrix(0.08024691358024688,0,0,0.08024691358024688,67.24691358024688,0)" xlink:href="#X"/><use transform="matrix(0.08024691358024688,0,0,0.08024691358024688,78.48148148148144,0)" xlink:href="#ac"/><use transform="matrix(0.08024691358024688,0,0,0.08024691358024688,94.53086419753083,0)" xlink:href="#ad"/><use transform="matrix(0.08024691358024688,0,0,0.08024691358024688,104.08024691358021,0)" xlink:href="#U"/><use transform="matrix(0.08024691358024688,0,0,0.08024691358024688,120.12962962962958,0)" xlink:href="#ae"/></g><path fill="#3a414a" d="M110-194c64 0 96 36 96 99 0 64-35 99-97 99-61 0-95-36-95-99 0-62 34-99 96-99zm-1 164c35 0 45-28 45-65 0-40-10-65-43-65-34 0-45 26-45 65 0 36 10 65 43 65" id="af"/><path fill="#3a414a" d="M220-157c-53 9-28 100-34 157h-49v-107c1-27-5-49-29-50C55-147 81-57 75 0H25l-1-190h47c2 12-1 28 3 38 10-53 101-56 108 0 13-22 24-43 59-42 82 1 51 116 57 194h-49v-107c-1-25-5-48-29-50" id="ag"/><g id="g"><use transform="matrix(0.08024691358024688,0,0,0.08024691358024688,0,0)" xlink:href="#X"/><use transform="matrix(0.08024691358024688,0,0,0.08024691358024688,11.234567901234563,0)" xlink:href="#ac"/><use transform="matrix(0.08024691358024688,0,0,0.08024691358024688,27.28395061728394,0)" xlink:href="#ab"/><use transform="matrix(0.08024691358024688,0,0,0.08024691358024688,44.858024691358004,0)" xlink:href="#V"/><use transform="matrix(0.08024691358024688,0,0,0.08024691358024688,62.43209876543207,0)" xlink:href="#af"/><use transform="matrix(0.08024691358024688,0,0,0.08024691358024688,80.00617283950614,0)" xlink:href="#ag"/></g><path fill="#3a414a" d="M76-54c-1 42 2 86-19 110H24C36 42 46 24 48 0H25v-54h51" id="ah"/><g id="h"><use transform="matrix(0.08024691358024688,0,0,0.08024691358024688,0,0)" xlink:href="#ae"/><use transform="matrix(0.08024691358024688,0,0,0.08024691358024688,16.049382716049376,0)" xlink:href="#ah"/></g><path fill="#3a414a" d="M140-251c80 0 125 45 125 126 0 70-33 111-92 124 6 28 34 38 68 31l-1 36C177 83 129 55 120 2 51-6 15-50 15-125c0-81 44-126 125-126zm-1 214c52 0 73-35 73-88 0-50-21-86-72-86-52 0-73 35-73 86s22 88 72 88" id="ai"/><g id="i"><use transform="matrix(0.08024691358024688,0,0,0.08024691358024688,0,0)" xlink:href="#ai"/><use transform="matrix(0.056172839506172814,0,0,0.056172839506172814,22.469135802469125,4.0444444444444425)" xlink:href="#ae"/></g><path fill="#3a414a" d="M15-148v-39h180v39H15zm0 97v-39h180v39H15" id="aj"/><use transform="matrix(0.08024691358024688,0,0,0.08024691358024688,0,0)" xlink:href="#aj" id="j"/><path fill="#3a414a" d="M67-125c0 54 23 88 75 88 28 0 53-7 68-21v-34h-60v-39h108v91C232-14 192 4 140 4 58 4 20-42 15-125 8-236 126-280 215-234c19 10 29 26 37 47l-47 15c-11-23-29-39-63-39-53 1-75 33-75 86" id="ak"/><g id="k"><use transform="matrix(0.08024691358024688,0,0,0.08024691358024688,0,0)" xlink:href="#ak"/><use transform="matrix(0.056172839506172814,0,0,0.056172839506172814,22.469135802469125,-8.088888888888885)" xlink:href="#ae"/></g><path fill="#3a414a" d="M67-93c0 74 22 123 53 168H70C40 30 18-18 18-93s22-123 52-168h50c-32 44-53 94-53 168" id="al"/><path fill="#3a414a" d="M121-226c-27-7-43 5-38 36h38v33H83V0H34v-157H6v-33h28c-9-59 32-81 87-68v32" id="am"/><path fill="#3a414a" d="M102-93c0 74-22 123-52 168H0C30 29 54-18 53-93c0-74-22-123-53-168h50c30 45 52 94 52 168" id="an"/><g id="l"><use transform="matrix(0.08024691358024688,0,0,0.08024691358024688,0,0)" xlink:href="#al"/><use transform="matrix(0.08024691358024688,0,0,0.08024691358024688,9.54938271604938,0)" xlink:href="#am"/><use transform="matrix(0.08024691358024688,0,0,0.08024691358024688,19.09876543209876,0)" xlink:href="#X"/><use transform="matrix(0.08024691358024688,0,0,0.08024691358024688,30.33333333333332,0)" xlink:href="#af"/><use transform="matrix(0.08024691358024688,0,0,0.08024691358024688,47.90740740740739,0)" xlink:href="#ab"/><use transform="matrix(0.08024691358024688,0,0,0.08024691358024688,65.48148148148145,0)" xlink:href="#ad"/><use transform="matrix(0.08024691358024688,0,0,0.08024691358024688,75.03086419753083,0)" xlink:href="#U"/><use transform="matrix(0.08024691358024688,0,0,0.08024691358024688,91.08024691358021,0)" xlink:href="#ab"/><use transform="matrix(0.08024691358024688,0,0,0.08024691358024688,108.65432098765427,0)" xlink:href="#V"/><use transform="matrix(0.08024691358024688,0,0,0.08024691358024688,126.22839506172832,0)" xlink:href="#an"/></g><use transform="matrix(0.0864197530864197,0,0,0.0864197530864197,0,0)" xlink:href="#Z" id="m"/><path fill="#3a414a" d="M190-63c-7 42-38 67-86 67-59 0-84-38-90-98-12-110 154-137 174-36l-49 2c-2-19-15-32-35-32-30 0-35 28-38 64-6 74 65 87 74 30" id="ao"/><path fill="#3a414a" d="M25 0v-261h50V0H25" id="ap"/><g id="n"><use transform="matrix(0.08024691358024688,0,0,0.08024691358024688,0,0)" xlink:href="#ao"/><use transform="matrix(0.08024691358024688,0,0,0.08024691358024688,16.049382716049376,0)" xlink:href="#ac"/><use transform="matrix(0.08024691358024688,0,0,0.08024691358024688,32.09876543209875,0)" xlink:href="#ap"/><use transform="matrix(0.08024691358024688,0,0,0.08024691358024688,40.12345679012344,0)" xlink:href="#ap"/><use transform="matrix(0.08024691358024688,0,0,0.08024691358024688,48.14814814814813,0)" xlink:href="#ae"/></g><path fill="#3a414a" d="M25-224v-37h50v37H25zM25 0v-190h50V0H25" id="aq"/><path fill="#3a414a" d="M67-125c0 53 21 87 73 88 37 1 54-22 65-47l45 17C233-25 199 4 140 4 58 4 20-42 15-125 8-235 124-281 211-232c18 10 29 29 36 50l-46 12c-8-25-30-41-62-41-52 0-71 34-72 86" id="ar"/><path fill="#3a414a" d="M147 0L96-86 75-71V0H25v-261h50v150l67-79h53l-66 74L201 0h-54" id="as"/><path fill="#3a414a" d="M24 0v-54h51V0H24" id="at"/><path fill="#3a414a" d="M135-194c53 0 70 44 70 98 0 56-19 98-73 100-31 1-45-17-59-34 3 33 2 69 2 105H25l-1-265h48c2 10 0 23 3 31 11-24 29-35 60-35zM114-30c33 0 39-31 40-66 0-38-9-64-40-64-56 0-55 130 0 130" id="au"/><g id="o"><use transform="matrix(0.08024691358024688,0,0,0.08024691358024688,0,0)" xlink:href="#aa"/><use transform="matrix(0.08024691358024688,0,0,0.08024691358024688,20.783950617283942,0)" xlink:href="#ad"/><use transform="matrix(0.08024691358024688,0,0,0.08024691358024688,30.33333333333332,0)" xlink:href="#af"/><use transform="matrix(0.08024691358024688,0,0,0.08024691358024688,47.90740740740739,0)" xlink:href="#ag"/><use transform="matrix(0.08024691358024688,0,0,0.08024691358024688,73.58641975308639,0)" xlink:href="#aq"/><use transform="matrix(0.08024691358024688,0,0,0.08024691358024688,81.61111111111107,0)" xlink:href="#ao"/><use transform="matrix(0.08024691358024688,0,0,0.08024691358024688,97.66049382716045,0)" xlink:href="#ar"/><use transform="matrix(0.08024691358024688,0,0,0.08024691358024688,118.4444444444444,0)" xlink:href="#ap"/><use transform="matrix(0.08024691358024688,0,0,0.08024691358024688,126.46913580246908,0)" xlink:href="#af"/><use transform="matrix(0.08024691358024688,0,0,0.08024691358024688,144.04320987654316,0)" xlink:href="#ac"/><use transform="matrix(0.08024691358024688,0,0,0.08024691358024688,160.09259259259252,0)" xlink:href="#as"/><use transform="matrix(0.08024691358024688,0,0,0.08024691358024688,176.14197530864192,0)" xlink:href="#at"/><use transform="matrix(0.08024691358024688,0,0,0.08024691358024688,184.16666666666654,0)" xlink:href="#af"/><use transform="matrix(0.08024691358024688,0,0,0.08024691358024688,201.74074074074065,0)" xlink:href="#au"/><use transform="matrix(0.08024691358024688,0,0,0.08024691358024688,219.31481481481472,0)" xlink:href="#U"/><use transform="matrix(0.08024691358024688,0,0,0.08024691358024688,235.3641975308641,0)" xlink:href="#ab"/><use transform="matrix(0.08024691358024688,0,0,0.08024691358024688,252.93827160493817,0)" xlink:href="#al"/><use transform="matrix(0.08024691358024688,0,0,0.08024691358024688,262.48765432098753,0)" xlink:href="#ai"/><use transform="matrix(0.056172839506172814,0,0,0.056172839506172814,284.95679012345664,4.0444444444444425)" xlink:href="#ae"/><use transform="matrix(0.08024691358024688,0,0,0.08024691358024688,296.1913580246912,0)" xlink:href="#ah"/></g><path fill="#3a414a" d="M182-130c37 4 62 22 62 59C244 23 116-4 24 0v-248c84 5 203-23 205 63 0 31-19 50-47 55zM76-148c40-3 101 13 101-30 0-44-60-28-101-31v61zm0 110c48-3 116 14 116-37 0-48-69-32-116-35v72" id="av"/><g id="p"><use transform="matrix(0.08024691358024688,0,0,0.08024691358024688,0,0)" xlink:href="#ac"/><use transform="matrix(0.08024691358024688,0,0,0.08024691358024688,16.049382716049376,0)" xlink:href="#V"/><use transform="matrix(0.08024691358024688,0,0,0.08024691358024688,33.62345679012344,0)" xlink:href="#V"/><use transform="matrix(0.08024691358024688,0,0,0.08024691358024688,51.1975308641975,0)" xlink:href="#X"/><use transform="matrix(0.08024691358024688,0,0,0.08024691358024688,62.432098765432066,0)" xlink:href="#al"/><use transform="matrix(0.08024691358024688,0,0,0.08024691358024688,71.98148148148144,0)" xlink:href="#av"/><use transform="matrix(0.08024691358024688,0,0,0.08024691358024688,92.7654320987654,0)" xlink:href="#an"/><use transform="matrix(0.08024691358024688,0,0,0.08024691358024688,102.31481481481477,0)" xlink:href="#ah"/></g><path fill="#3a414a" d="M128 0H69L1-190h53L99-40l48-150h52" id="aw"/><path fill="#3a414a" d="M85 4C-2 5 27-109 22-190h50c7 57-23 150 33 157 60-5 35-97 40-157h50l1 190h-47c-2-12 1-28-3-38-12 25-28 42-61 42" id="ax"/><g id="q"><use transform="matrix(0.08024691358024688,0,0,0.08024691358024688,0,0)" xlink:href="#ag"/><use transform="matrix(0.08024691358024688,0,0,0.08024691358024688,25.679012345679002,0)" xlink:href="#ae"/><use transform="matrix(0.08024691358024688,0,0,0.08024691358024688,41.72839506172838,0)" xlink:href="#W"/><use transform="matrix(0.08024691358024688,0,0,0.08024691358024688,59.30246913580243,0)" xlink:href="#at"/><use transform="matrix(0.08024691358024688,0,0,0.08024691358024688,67.32716049382712,0)" xlink:href="#aw"/><use transform="matrix(0.08024691358024688,0,0,0.08024691358024688,83.37654320987652,0)" xlink:href="#ac"/><use transform="matrix(0.08024691358024688,0,0,0.08024691358024688,99.42592592592588,0)" xlink:href="#ap"/><use transform="matrix(0.08024691358024688,0,0,0.08024691358024688,107.45061728395055,0)" xlink:href="#ax"/><use transform="matrix(0.08024691358024688,0,0,0.08024691358024688,125.02469135802463,0)" xlink:href="#U"/><use transform="matrix(0.08024691358024688,0,0,0.08024691358024688,141.074074074074,0)" xlink:href="#an"/></g><path fill="#3a414a" d="M128-127c34 4 56 21 59 58 7 91-148 94-172 28-4-9-6-17-7-26l51-5c1 24 16 35 40 36 23 0 39-12 38-36-1-31-31-36-65-34v-40c32 2 59-3 59-33 0-20-13-33-34-33s-33 13-35 32l-50-3c6-44 37-68 86-68 50 0 83 20 83 66 0 35-22 52-53 58" id="ay"/><use transform="matrix(0.0864197530864197,0,0,0.0864197530864197,0,0)" xlink:href="#ay" id="r"/><path fill="#3a414a" d="M12 0v-35l95-120H19v-35h142v35L67-36h103V0H12" id="az"/><use transform="matrix(0.08024691358024688,0,0,0.08024691358024688,0,0)" xlink:href="#az" id="s"/><g id="t"><use transform="matrix(0.08024691358024688,0,0,0.08024691358024688,0,0)" xlink:href="#al"/><use transform="matrix(0.08024691358024688,0,0,0.08024691358024688,9.54938271604938,0)" xlink:href="#am"/><use transform="matrix(0.08024691358024688,0,0,0.08024691358024688,19.09876543209876,0)" xlink:href="#X"/><use transform="matrix(0.08024691358024688,0,0,0.08024691358024688,30.33333333333332,0)" xlink:href="#af"/><use transform="matrix(0.08024691358024688,0,0,0.08024691358024688,47.90740740740739,0)" xlink:href="#ab"/><use transform="matrix(0.08024691358024688,0,0,0.08024691358024688,65.48148148148145,0)" xlink:href="#ad"/><use transform="matrix(0.08024691358024688,0,0,0.08024691358024688,75.03086419753083,0)" xlink:href="#U"/><use transform="matrix(0.08024691358024688,0,0,0.08024691358024688,91.08024691358021,0)" xlink:href="#ab"/><use transform="matrix(0.08024691358024688,0,0,0.08024691358024688,108.65432098765427,0)" xlink:href="#V"/><use transform="matrix(0.08024691358024688,0,0,0.08024691358024688,126.22839506172832,0)" xlink:href="#an"/></g><use transform="matrix(0.08024691358024688,0,0,0.08024691358024688,0,0)" xlink:href="#av" id="u"/><path fill="#3a414a" d="M135-194c52 0 70 43 70 98 0 56-19 99-73 100-30 1-46-15-58-35L72 0H24l1-261h50v104c11-23 29-37 60-37zM114-30c31 0 40-27 40-66 0-37-7-63-39-63s-41 28-41 65c0 36 8 64 40 64" id="aA"/><g id="v"><use transform="matrix(0.08024691358024688,0,0,0.08024691358024688,0,0)" xlink:href="#al"/><use transform="matrix(0.08024691358024688,0,0,0.08024691358024688,9.54938271604938,0)" xlink:href="#aA"/><use transform="matrix(0.08024691358024688,0,0,0.08024691358024688,27.123456790123445,0)" xlink:href="#ac"/><use transform="matrix(0.08024691358024688,0,0,0.08024691358024688,43.17283950617282,0)" xlink:href="#ao"/><use transform="matrix(0.08024691358024688,0,0,0.08024691358024688,59.2222222222222,0)" xlink:href="#as"/><use transform="matrix(0.08024691358024688,0,0,0.08024691358024688,75.27160493827158,0)" xlink:href="#U"/><use transform="matrix(0.08024691358024688,0,0,0.08024691358024688,91.32098765432094,0)" xlink:href="#ab"/><use transform="matrix(0.08024691358024688,0,0,0.08024691358024688,108.89506172839502,0)" xlink:href="#V"/><use transform="matrix(0.08024691358024688,0,0,0.08024691358024688,126.46913580246908,0)" xlink:href="#an"/></g><path fill="#3a414a" d="M87 75C49 33 22-17 22-94c0-76 28-126 65-167h31c-38 41-64 92-64 168S80 34 118 75H87" id="aB"/><path fill="#3a414a" d="M9 0v-24l116-142H16v-24h144v24L44-24h123V0H9" id="aC"/><path fill="#3a414a" d="M68-38c1 34 0 65-14 84H32c9-13 17-26 17-46H33v-38h35" id="aD"/><g id="w"><use transform="matrix(0.06790123456790122,0,0,0.06790123456790122,0,0)" xlink:href="#aB"/><use transform="matrix(0.06790123456790122,0,0,0.06790123456790122,8.080246913580245,0)" xlink:href="#aC"/><use transform="matrix(0.06790123456790122,0,0,0.06790123456790122,20.302469135802465,0)" xlink:href="#aD"/></g><path fill="#3a414a" d="M141-36C126-15 110 5 73 4 37 3 15-17 15-53c-1-64 63-63 125-63 3-35-9-54-41-54-24 1-41 7-42 31l-33-3c5-37 33-52 76-52 45 0 72 20 72 64v82c-1 20 7 32 28 27v20c-31 9-61-2-59-35zM48-53c0 20 12 33 32 33 41-3 63-29 60-74-43 2-92-5-92 41" id="aE"/><path fill="#3a414a" d="M85-194c31 0 48 13 60 33l-1-100h32l1 261h-30c-2-10 0-23-3-31C134-8 116 4 85 4 32 4 16-35 15-94c0-66 23-100 70-100zm9 24c-40 0-46 34-46 75 0 40 6 74 45 74 42 0 51-32 51-76 0-42-9-74-50-73" id="aF"/><path fill="#3a414a" d="M114-163C36-179 61-72 57 0H25l-1-190h30c1 12-1 29 2 39 6-27 23-49 58-41v29" id="aG"/><path fill="#3a414a" d="M101-251c82-7 93 87 43 132L82-64C71-53 59-42 53-27h129V0H18c2-99 128-94 128-182 0-28-16-43-45-43s-46 15-49 41l-32-3c6-41 34-60 81-64" id="aH"/><path fill="#3a414a" d="M205 0l-28-72H64L36 0H1l101-248h38L239 0h-34zm-38-99l-47-123c-12 45-31 82-46 123h93" id="aI"/><path fill="#3a414a" d="M33-261c38 41 65 92 65 168S71 34 33 75H2C39 34 66-17 66-93S39-220 2-261h31" id="aJ"/><g id="x"><use transform="matrix(0.06790123456790122,0,0,0.06790123456790122,0,0)" xlink:href="#aE"/><use transform="matrix(0.06790123456790122,0,0,0.06790123456790122,13.580246913580243,0)" xlink:href="#aF"/><use transform="matrix(0.06790123456790122,0,0,0.06790123456790122,27.160493827160487,0)" xlink:href="#aF"/><use transform="matrix(0.06790123456790122,0,0,0.06790123456790122,40.74074074074073,0)" xlink:href="#aG"/><use transform="matrix(0.04753086419753085,0,0,0.04753086419753085,48.82098765432099,3.422222222222221)" xlink:href="#aH"/><use transform="matrix(0.06790123456790122,0,0,0.06790123456790122,58.32716049382715,0)" xlink:href="#aB"/><use transform="matrix(0.06790123456790122,0,0,0.06790123456790122,66.40740740740739,0)" xlink:href="#aI"/><use transform="matrix(0.06790123456790122,0,0,0.06790123456790122,82.70370370370368,0)" xlink:href="#aJ"/><use transform="matrix(0.06790123456790122,0,0,0.06790123456790122,90.78395061728392,0)" xlink:href="#aD"/></g><path fill="#3a414a" d="M30 0v-248h33v221h125V0H30" id="aK"/><path fill="#3a414a" d="M100-194c63 0 86 42 84 106H49c0 40 14 67 53 68 26 1 43-12 49-29l28 8c-11 28-37 45-77 45C44 4 14-33 15-96c1-61 26-98 85-98zm52 81c6-60-76-77-97-28-3 7-6 17-6 28h103" id="aL"/><path fill="#3a414a" d="M177-190C167-65 218 103 67 71c-23-6-38-20-44-43l32-5c15 47 100 32 89-28v-30C133-14 115 1 83 1 29 1 15-40 15-95c0-56 16-97 71-98 29-1 48 16 59 35 1-10 0-23 2-32h30zM94-22c36 0 50-32 50-73 0-42-14-75-50-75-39 0-46 34-46 75s6 73 46 73" id="aM"/><g id="y"><use transform="matrix(0.06790123456790122,0,0,0.06790123456790122,0,0)" xlink:href="#aK"/><use transform="matrix(0.06790123456790122,0,0,0.06790123456790122,13.580246913580243,0)" xlink:href="#aL"/><use transform="matrix(0.06790123456790122,0,0,0.06790123456790122,27.160493827160487,0)" xlink:href="#aF"/><use transform="matrix(0.06790123456790122,0,0,0.06790123456790122,40.74074074074073,0)" xlink:href="#aM"/><use transform="matrix(0.06790123456790122,0,0,0.06790123456790122,54.32098765432097,0)" xlink:href="#aL"/><use transform="matrix(0.06790123456790122,0,0,0.06790123456790122,67.90123456790121,0)" xlink:href="#aG"/><use transform="matrix(0.06790123456790122,0,0,0.06790123456790122,75.98148148148145,0)" xlink:href="#aH"/><use transform="matrix(0.06790123456790122,0,0,0.06790123456790122,89.56172839506169,0)" xlink:href="#aJ"/></g><path fill="#3a414a" d="M165-50V0h-47v-50H5v-38l105-160h55v161h33v37h-33zm-47-37l2-116L46-87h72" id="aN"/><use transform="matrix(0.0864197530864197,0,0,0.0864197530864197,0,0)" xlink:href="#aN" id="z"/><g id="A"><use transform="matrix(0.08024691358024688,0,0,0.08024691358024688,0,0)" xlink:href="#ao"/><use transform="matrix(0.08024691358024688,0,0,0.08024691358024688,16.049382716049376,0)" xlink:href="#af"/><use transform="matrix(0.08024691358024688,0,0,0.08024691358024688,33.62345679012344,0)" xlink:href="#ag"/><use transform="matrix(0.08024691358024688,0,0,0.08024691358024688,59.30246913580243,0)" xlink:href="#au"/><use transform="matrix(0.08024691358024688,0,0,0.08024691358024688,76.8765432098765,0)" xlink:href="#ax"/><use transform="matrix(0.08024691358024688,0,0,0.08024691358024688,94.45061728395056,0)" xlink:href="#ad"/><use transform="matrix(0.08024691358024688,0,0,0.08024691358024688,103.99999999999994,0)" xlink:href="#U"/><use transform="matrix(0.08024691358024688,0,0,0.08024691358024688,120.04938271604932,0)" xlink:href="#ae"/><use transform="matrix(0.08024691358024688,0,0,0.08024691358024688,136.0987654320987,0)" xlink:href="#ah"/></g><g id="B"><use transform="matrix(0.08024691358024688,0,0,0.08024691358024688,0,0)" xlink:href="#ai"/><use transform="matrix(0.056172839506172814,0,0,0.056172839506172814,22.469135802469125,4.0444444444444425)" xlink:href="#av"/></g><path fill="#3a414a" d="M169-182c-1-43-94-46-97-3 18 66 151 10 154 114 3 95-165 93-204 36-6-8-10-19-12-30l50-8c3 46 112 56 116 5-17-69-150-10-154-114-4-87 153-88 188-35 5 8 8 18 10 28" id="aO"/><g id="C"><use transform="matrix(0.08024691358024688,0,0,0.08024691358024688,0,0)" xlink:href="#ai"/><use transform="matrix(0.056172839506172814,0,0,0.056172839506172814,22.469135802469125,4.0444444444444425)" xlink:href="#aO"/><use transform="matrix(0.08024691358024688,0,0,0.08024691358024688,35.9506172839506,0)" xlink:href="#ak"/><use transform="matrix(0.056172839506172814,0,0,0.056172839506172814,58.419753086419725,-8.088888888888885)" xlink:href="#az"/></g><g id="D"><use transform="matrix(0.08024691358024688,0,0,0.08024691358024688,0,0)" xlink:href="#al"/><use transform="matrix(0.08024691358024688,0,0,0.08024691358024688,9.54938271604938,0)" xlink:href="#aA"/><use transform="matrix(0.08024691358024688,0,0,0.08024691358024688,27.123456790123445,0)" xlink:href="#ac"/><use transform="matrix(0.08024691358024688,0,0,0.08024691358024688,43.17283950617282,0)" xlink:href="#ao"/><use transform="matrix(0.08024691358024688,0,0,0.08024691358024688,59.2222222222222,0)" xlink:href="#as"/><use transform="matrix(0.08024691358024688,0,0,0.08024691358024688,75.27160493827158,0)" xlink:href="#U"/><use transform="matrix(0.08024691358024688,0,0,0.08024691358024688,91.32098765432094,0)" xlink:href="#ab"/><use transform="matrix(0.08024691358024688,0,0,0.08024691358024688,108.89506172839502,0)" xlink:href="#V"/><use transform="matrix(0.08024691358024688,0,0,0.08024691358024688,126.46913580246908,0)" xlink:href="#an"/></g><path fill="#3a414a" d="M139-81c0-46-55-55-73-27H18l9-140h149v37H72l-4 63c44-38 133-4 122 66C201 21 21 35 11-62l49-4c5 18 15 30 39 30 26 0 40-18 40-45" id="aP"/><use transform="matrix(0.0864197530864197,0,0,0.0864197530864197,0,0)" xlink:href="#aP" id="E"/><g id="F"><use transform="matrix(0.08024691358024688,0,0,0.08024691358024688,0,0)" xlink:href="#aa"/><use transform="matrix(0.08024691358024688,0,0,0.08024691358024688,20.783950617283942,0)" xlink:href="#ad"/><use transform="matrix(0.08024691358024688,0,0,0.08024691358024688,30.33333333333332,0)" xlink:href="#af"/><use transform="matrix(0.08024691358024688,0,0,0.08024691358024688,47.90740740740739,0)" xlink:href="#ag"/><use transform="matrix(0.08024691358024688,0,0,0.08024691358024688,73.58641975308639,0)" xlink:href="#aq"/><use transform="matrix(0.08024691358024688,0,0,0.08024691358024688,81.61111111111107,0)" xlink:href="#ao"/><use transform="matrix(0.08024691358024688,0,0,0.08024691358024688,97.66049382716045,0)" xlink:href="#ar"/><use transform="matrix(0.08024691358024688,0,0,0.08024691358024688,118.4444444444444,0)" xlink:href="#ap"/><use transform="matrix(0.08024691358024688,0,0,0.08024691358024688,126.46913580246908,0)" xlink:href="#af"/><use transform="matrix(0.08024691358024688,0,0,0.08024691358024688,144.04320987654316,0)" xlink:href="#ac"/><use transform="matrix(0.08024691358024688,0,0,0.08024691358024688,160.09259259259252,0)" xlink:href="#as"/><use transform="matrix(0.08024691358024688,0,0,0.08024691358024688,176.14197530864192,0)" xlink:href="#at"/><use transform="matrix(0.08024691358024688,0,0,0.08024691358024688,184.16666666666654,0)" xlink:href="#af"/><use transform="matrix(0.08024691358024688,0,0,0.08024691358024688,201.74074074074065,0)" xlink:href="#au"/><use transform="matrix(0.08024691358024688,0,0,0.08024691358024688,219.31481481481472,0)" xlink:href="#U"/><use transform="matrix(0.08024691358024688,0,0,0.08024691358024688,235.3641975308641,0)" xlink:href="#ab"/><use transform="matrix(0.08024691358024688,0,0,0.08024691358024688,252.93827160493817,0)" xlink:href="#al"/><use transform="matrix(0.08024691358024688,0,0,0.08024691358024688,262.48765432098753,0)" xlink:href="#ai"/><use transform="matrix(0.056172839506172814,0,0,0.056172839506172814,284.95679012345664,4.0444444444444425)" xlink:href="#av"/><use transform="matrix(0.08024691358024688,0,0,0.08024691358024688,299.5055555555554,0)" xlink:href="#ah"/></g><g id="G"><use transform="matrix(0.08024691358024688,0,0,0.08024691358024688,0,0)" xlink:href="#ac"/><use transform="matrix(0.08024691358024688,0,0,0.08024691358024688,16.049382716049376,0)" xlink:href="#V"/><use transform="matrix(0.08024691358024688,0,0,0.08024691358024688,33.62345679012344,0)" xlink:href="#V"/><use transform="matrix(0.08024691358024688,0,0,0.08024691358024688,51.1975308641975,0)" xlink:href="#X"/><use transform="matrix(0.056172839506172814,0,0,0.056172839506172814,62.432098765432066,4.0444444444444425)" xlink:href="#Z"/><use transform="matrix(0.08024691358024688,0,0,0.08024691358024688,73.66666666666663,0)" xlink:href="#al"/><use transform="matrix(0.08024691358024688,0,0,0.08024691358024688,83.21604938271602,0)" xlink:href="#aa"/><use transform="matrix(0.08024691358024688,0,0,0.08024691358024688,103.99999999999994,0)" xlink:href="#an"/><use transform="matrix(0.08024691358024688,0,0,0.08024691358024688,113.54938271604932,0)" xlink:href="#ah"/></g><g id="H"><use transform="matrix(0.08024691358024688,0,0,0.08024691358024688,0,0)" xlink:href="#ag"/><use transform="matrix(0.08024691358024688,0,0,0.08024691358024688,25.679012345679002,0)" xlink:href="#ae"/><use transform="matrix(0.08024691358024688,0,0,0.08024691358024688,41.72839506172838,0)" xlink:href="#W"/><use transform="matrix(0.08024691358024688,0,0,0.08024691358024688,59.30246913580243,0)" xlink:href="#at"/><use transform="matrix(0.08024691358024688,0,0,0.08024691358024688,67.32716049382712,0)" xlink:href="#aw"/><use transform="matrix(0.08024691358024688,0,0,0.08024691358024688,83.37654320987652,0)" xlink:href="#ac"/><use transform="matrix(0.08024691358024688,0,0,0.08024691358024688,99.42592592592588,0)" xlink:href="#ap"/><use transform="matrix(0.08024691358024688,0,0,0.08024691358024688,107.45061728395055,0)" xlink:href="#ax"/><use transform="matrix(0.08024691358024688,0,0,0.08024691358024688,125.02469135802463,0)" xlink:href="#U"/><use transform="matrix(0.08024691358024688,0,0,0.08024691358024688,141.074074074074,0)" xlink:href="#an"/></g><path fill="#3a414a" d="M115-159c48 0 72 30 72 78 0 54-30 85-83 85-64 0-91-50-91-122 0-98 58-163 141-120 15 8 21 24 27 44l-47 6c-5-31-48-31-61-4-7 14-11 33-11 60 9-17 28-27 53-27zM102-35c24 0 36-20 36-45s-11-43-37-43c-23 0-36 14-36 38 0 27 11 50 37 50" id="aQ"/><use transform="matrix(0.0864197530864197,0,0,0.0864197530864197,0,0)" xlink:href="#aQ" id="I"/><path fill="#3a414a" d="M144 0l-44-69L55 0H2l70-98-66-92h53l41 62 40-62h54l-67 91 71 99h-54" id="aR"/><g id="J"><use transform="matrix(0.08024691358024688,0,0,0.08024691358024688,0,0)" xlink:href="#aa"/><use transform="matrix(0.08024691358024688,0,0,0.08024691358024688,20.783950617283942,0)" xlink:href="#ad"/><use transform="matrix(0.08024691358024688,0,0,0.08024691358024688,30.33333333333332,0)" xlink:href="#af"/><use transform="matrix(0.08024691358024688,0,0,0.08024691358024688,47.90740740740739,0)" xlink:href="#ag"/><use transform="matrix(0.08024691358024688,0,0,0.08024691358024688,73.58641975308639,0)" xlink:href="#aq"/><use transform="matrix(0.08024691358024688,0,0,0.08024691358024688,81.61111111111107,0)" xlink:href="#ao"/><use transform="matrix(0.08024691358024688,0,0,0.08024691358024688,97.66049382716045,0)" xlink:href="#ar"/><use transform="matrix(0.08024691358024688,0,0,0.08024691358024688,118.4444444444444,0)" xlink:href="#ap"/><use transform="matrix(0.08024691358024688,0,0,0.08024691358024688,126.46913580246908,0)" xlink:href="#af"/><use transform="matrix(0.08024691358024688,0,0,0.08024691358024688,144.04320987654316,0)" xlink:href="#ac"/><use transform="matrix(0.08024691358024688,0,0,0.08024691358024688,160.09259259259252,0)" xlink:href="#as"/><use transform="matrix(0.08024691358024688,0,0,0.08024691358024688,176.14197530864192,0)" xlink:href="#at"/><use transform="matrix(0.08024691358024688,0,0,0.08024691358024688,184.16666666666654,0)" xlink:href="#U"/><use transform="matrix(0.08024691358024688,0,0,0.08024691358024688,200.21604938271594,0)" xlink:href="#aR"/><use transform="matrix(0.08024691358024688,0,0,0.08024691358024688,216.2654320987653,0)" xlink:href="#au"/><use transform="matrix(0.08024691358024688,0,0,0.08024691358024688,233.83950617283938,0)" xlink:href="#aq"/><use transform="matrix(0.08024691358024688,0,0,0.08024691358024688,241.86419753086406,0)" xlink:href="#X"/><use transform="matrix(0.08024691358024688,0,0,0.08024691358024688,253.09876543209862,0)" xlink:href="#U"/><use transform="matrix(0.08024691358024688,0,0,0.08024691358024688,269.148148148148,0)" xlink:href="#al"/><use transform="matrix(0.08024691358024688,0,0,0.08024691358024688,278.69753086419735,0)" xlink:href="#ai"/><use transform="matrix(0.056172839506172814,0,0,0.056172839506172814,301.16666666666646,4.0444444444444425)" xlink:href="#av"/><use transform="matrix(0.08024691358024688,0,0,0.08024691358024688,315.71543209876523,0)" xlink:href="#an"/></g><path fill="#3a414a" d="M52 0c1-96 47-148 87-207H15v-41h169v40c-36 62-79 113-81 208H52" id="aS"/><use transform="matrix(0.0864197530864197,0,0,0.0864197530864197,0,0)" xlink:href="#aS" id="K"/><g id="L"><use transform="matrix(0.08024691358024688,0,0,0.08024691358024688,0,0)" xlink:href="#aa"/><use transform="matrix(0.08024691358024688,0,0,0.08024691358024688,20.783950617283942,0)" xlink:href="#ad"/><use transform="matrix(0.08024691358024688,0,0,0.08024691358024688,30.33333333333332,0)" xlink:href="#af"/><use transform="matrix(0.08024691358024688,0,0,0.08024691358024688,47.90740740740739,0)" xlink:href="#ag"/><use transform="matrix(0.08024691358024688,0,0,0.08024691358024688,73.58641975308639,0)" xlink:href="#aq"/><use transform="matrix(0.08024691358024688,0,0,0.08024691358024688,81.61111111111107,0)" xlink:href="#ao"/><use transform="matrix(0.08024691358024688,0,0,0.08024691358024688,97.66049382716045,0)" xlink:href="#ar"/><use transform="matrix(0.08024691358024688,0,0,0.08024691358024688,118.4444444444444,0)" xlink:href="#ap"/><use transform="matrix(0.08024691358024688,0,0,0.08024691358024688,126.46913580246908,0)" xlink:href="#af"/><use transform="matrix(0.08024691358024688,0,0,0.08024691358024688,144.04320987654316,0)" xlink:href="#ac"/><use transform="matrix(0.08024691358024688,0,0,0.08024691358024688,160.09259259259252,0)" xlink:href="#as"/><use transform="matrix(0.08024691358024688,0,0,0.08024691358024688,176.14197530864192,0)" xlink:href="#at"/><use transform="matrix(0.08024691358024688,0,0,0.08024691358024688,184.16666666666654,0)" xlink:href="#U"/><use transform="matrix(0.08024691358024688,0,0,0.08024691358024688,200.21604938271594,0)" xlink:href="#aR"/><use transform="matrix(0.08024691358024688,0,0,0.08024691358024688,216.2654320987653,0)" xlink:href="#au"/><use transform="matrix(0.08024691358024688,0,0,0.08024691358024688,233.83950617283938,0)" xlink:href="#aq"/><use transform="matrix(0.08024691358024688,0,0,0.08024691358024688,241.86419753086406,0)" xlink:href="#X"/><use transform="matrix(0.08024691358024688,0,0,0.08024691358024688,253.09876543209862,0)" xlink:href="#U"/><use transform="matrix(0.08024691358024688,0,0,0.08024691358024688,269.148148148148,0)" xlink:href="#al"/><use transform="matrix(0.08024691358024688,0,0,0.08024691358024688,278.69753086419735,0)" xlink:href="#ai"/><use transform="matrix(0.056172839506172814,0,0,0.056172839506172814,301.16666666666646,4.0444444444444425)" xlink:href="#ae"/><use transform="matrix(0.08024691358024688,0,0,0.08024691358024688,312.40123456790104,0)" xlink:href="#an"/></g><path fill="#3a414a" d="M127-220V0H93v-220H8v-28h204v28h-85" id="aT"/><path fill="#3a414a" d="M100-194c62-1 85 37 85 99 1 63-27 99-86 99S16-35 15-95c0-66 28-99 85-99zM99-20c44 1 53-31 53-75 0-43-8-75-51-75s-53 32-53 75 10 74 51 75" id="aU"/><path fill="#3a414a" d="M143 0L79-87 56-68V0H24v-261h32v163l83-92h37l-77 82L181 0h-38" id="aV"/><path fill="#3a414a" d="M117-194c89-4 53 116 60 194h-32v-121c0-31-8-49-39-48C34-167 62-67 57 0H25l-1-190h30c1 10-1 24 2 32 11-22 29-35 61-36" id="aW"/><path fill="#3a414a" d="M135-143c-3-34-86-38-87 0 15 53 115 12 119 90S17 21 10-45l28-5c4 36 97 45 98 0-10-56-113-15-118-90-4-57 82-63 122-42 12 7 21 19 24 35" id="aX"/><g id="M"><use transform="matrix(0.07407407407407407,0,0,0.07407407407407407,0,0)" xlink:href="#aT"/><use transform="matrix(0.07407407407407407,0,0,0.07407407407407407,13.259259259259258,0)" xlink:href="#aU"/><use transform="matrix(0.07407407407407407,0,0,0.07407407407407407,28.074074074074073,0)" xlink:href="#aV"/><use transform="matrix(0.07407407407407407,0,0,0.07407407407407407,41.407407407407405,0)" xlink:href="#aL"/><use transform="matrix(0.07407407407407407,0,0,0.07407407407407407,56.22222222222221,0)" xlink:href="#aW"/><use transform="matrix(0.07407407407407407,0,0,0.07407407407407407,71.03703703703702,0)" xlink:href="#aX"/></g><use transform="matrix(0.07407407407407407,0,0,0.07407407407407407,0,0)" xlink:href="#aI" id="N"/><use transform="matrix(0.07407407407407407,0,0,0.07407407407407407,0,0)" xlink:href="#aI" id="O"/><path fill="#3a414a" d="M160-131c35 5 61 23 61 61C221 17 115-2 30 0v-248c76 3 177-17 177 60 0 33-19 50-47 57zm-97-11c50-1 110 9 110-42 0-47-63-36-110-37v79zm0 115c55-2 124 14 124-45 0-56-70-42-124-44v89" id="aY"/><use transform="matrix(0.07407407407407407,0,0,0.07407407407407407,0,0)" xlink:href="#aY" id="P"/><use transform="matrix(0.07407407407407407,0,0,0.07407407407407407,0,0)" xlink:href="#aY" id="Q"/><path fill="#3a414a" d="M136-208V0H84v-208H4v-40h212v40h-80" id="aZ"/><path fill="#3a414a" d="M24 0v-248h52V0H24" id="ba"/><path fill="#3a414a" d="M230 0l2-204L168 0h-37L68-204 70 0H24v-248h70l56 185 57-185h69V0h-46" id="bb"/><path fill="#3a414a" d="M24 0v-248h195v40H76v63h132v40H76v65h150V0H24" id="bc"/><path fill="#3a414a" d="M140-251c80 0 125 45 125 126S219 4 139 4C58 4 15-44 15-125s44-126 125-126zm-1 214c52 0 73-35 73-88 0-50-21-86-72-86-52 0-73 35-73 86s22 88 72 88" id="bd"/><path fill="#3a414a" d="M238-95c0 69-44 99-111 99C63 4 22-25 22-93v-155h51v151c-1 38 19 59 55 60 90 1 49-130 58-211h52v153" id="be"/><g id="R"><use transform="matrix(0.08641975308641973,0,0,0.08641975308641973,0,0)" xlink:href="#aZ"/><use transform="matrix(0.08641975308641973,0,0,0.08641975308641973,18.92592592592592,0)" xlink:href="#ba"/><use transform="matrix(0.08641975308641973,0,0,0.08641975308641973,27.56790123456789,0)" xlink:href="#bb"/><use transform="matrix(0.08641975308641973,0,0,0.08641975308641973,53.40740740740738,0)" xlink:href="#bc"/><use transform="matrix(0.08641975308641973,0,0,0.08641975308641973,74.14814814814812,0)" xlink:href="#bd"/><use transform="matrix(0.08641975308641973,0,0,0.08641975308641973,98.34567901234564,0)" xlink:href="#be"/><use transform="matrix(0.08641975308641973,0,0,0.08641975308641973,120.72839506172835,0)" xlink:href="#aZ"/></g><path fill="#3a414a" d="M240-174c0 40-23 61-54 70L253 0h-59l-57-94H76V0H24v-248c93 4 217-23 216 74zM76-134c48-2 112 12 112-38 0-48-66-32-112-35v73" id="bf"/><g id="S"><use transform="matrix(0.08641975308641973,0,0,0.08641975308641973,0,0)" xlink:href="#bc"/><use transform="matrix(0.08641975308641973,0,0,0.08641975308641973,20.740740740740737,0)" xlink:href="#bf"/><use transform="matrix(0.08641975308641973,0,0,0.08641975308641973,43.12345679012345,0)" xlink:href="#bf"/><use transform="matrix(0.08641975308641973,0,0,0.08641975308641973,65.50617283950616,0)" xlink:href="#bd"/><use transform="matrix(0.08641975308641973,0,0,0.08641975308641973,89.70370370370371,0)" xlink:href="#bf"/></g></defs></g></svg>