<svg width="28" height="24" viewBox="0 0 28 24" fill="none" xmlns="http://www.w3.org/2000/svg">
<path d="M4.38658 2.84545L0.686569 9.41849C0.238522 10.2144 0.0021352 11.1119 1.43973e-05 12.0252C-0.0021064 12.9385 0.23011 13.8371 0.674456 14.635L4.36216 21.2583C4.82487 22.0894 5.50125 22.7818 6.3213 23.2638C7.14136 23.7458 8.07531 24 9.02654 24H12.9501L7.61632 14.7249C7.15069 13.9151 6.90565 12.9974 6.90565 12.0633C6.90565 11.1292 7.15069 10.2115 7.61632 9.40169L12.9501 0.126404H9.03885C8.09193 0.126329 7.16203 0.378104 6.3445 0.855913C5.52697 1.33372 4.85124 2.02037 4.38658 2.84545Z" fill="#4B5563"/>
<path d="M13.4335 2.71903L9.73345 9.29201C9.2854 10.0879 9.04901 10.9854 9.04689 11.8987C9.04477 12.812 9.27698 13.7106 9.72133 14.5085L13.4089 21.1317C13.8716 21.9628 14.548 22.6552 15.3681 23.1372C16.1882 23.6193 17.1222 23.8734 18.0735 23.8734H21.997L16.6633 14.5982C16.1975 13.7885 15.9524 12.8707 15.9524 11.9366C15.9524 11.0025 16.1975 10.0847 16.6633 9.27502L21.997 1.01138e-07H18.0862C17.1392 -0.000184207 16.2092 0.25154 15.3916 0.729354C14.5739 1.20717 13.8982 1.89387 13.4335 2.71903Z" fill="#C2C8CE"/>
<path d="M19.9727 7.31308L21.5532 10.4287H26.8674C27.6699 10.4287 28.1765 9.56654 27.7869 8.86573L23.4777 1.11694L19.9727 7.31308Z" fill="#4B5563"/>
<path d="M21.6066 13.6956L19.9727 16.4176L23.4777 23.0759L27.7955 15.2565C28.1825 14.5551 27.6753 13.6956 26.8743 13.6956H21.6066Z" fill="#4B5563"/>
</svg>
